<svg width="76.163720703125px" height="172.38388671875px" xmlns="http://www.w3.org/2000/svg" viewBox="211.9181396484375 -11.191943359375003 76.163720703125 172.38388671875" style="background: rgb(0, 0, 0);" preserveAspectRatio="xMidYMid"><defs><linearGradient id="editing-glowing-gradient" x1="0.6791839747726504" x2="0.32081602522734964" y1="0.9667902132486008" y2="0.033209786751399184"><stop offset="0" stop-color="#0aff00"></stop><stop offset="1" stop-color="#0055ff"></stop></linearGradient><filter id="editing-glowing" x="-100%" y="-100%" width="300%" height="300%"><feGaussianBlur in="SourceGraphic" result="blur" stdDeviation="30"></feGaussianBlur><feMerge><feMergeNode in="blur"></feMergeNode><feMergeNode in="SourceGraphic"></feMergeNode></feMerge></filter></defs><g filter="url(#editing-glowing)"><g transform="translate(232.15906219929457, 114.69343566894531)"><path d="M18.02-48.19L18.02-48.19L18.02-48.19Q18.02-55.66 16.60-59.08L16.60-59.08L16.60-59.08Q15.82-60.94 13.11-62.82L13.11-62.82L13.11-62.82Q10.40-64.70 10.40-65.97L10.40-65.97L10.40-65.97Q10.40-67.48 18.51-67.48L18.51-67.48L18.51-67.48Q19.29-67.48 21.26-67.60L21.26-67.60L21.26-67.60Q23.24-67.72 24.37-67.77L24.37-67.77L26.76-67.92L26.76-67.92Q29.15-68.07 30.37-68.07L30.37-68.07L31.59-68.07L31.59-68.07Q34.81-68.07 34.81-66.06L34.81-66.06L34.81-66.06Q34.81-65.43 33.01-63.70L33.01-63.70L33.01-63.70Q31.20-61.96 30.49-60.03L30.49-60.03L30.49-60.03Q29.79-58.11 29.79-50.44L29.79-50.44L29.69-47.95L29.64-44.24L29.64-40.43L29.64-40.43Q29.54-37.89 29.54-36.33L29.54-36.33L29.54-32.86L29.49-30.32L29.49-22.22L29.49-22.22Q29.49-15.38 28.66-9.57L28.66-9.57L28.66-9.57Q26.76 3.66 16.46 9.18L16.46 9.18L16.46 9.18Q12.11 11.52 7.81 11.52L7.81 11.52L7.81 11.52Q-0.05 11.52-0.05 7.62L-0.05 7.62L-0.05 7.62Q-0.05 5.32 1.56 3.81L1.56 3.81L1.56 3.81Q3.17 2.29 6.59 2.29L6.59 2.29L9.47 2.49L9.47 2.49Q11.47 2.49 13.04 1.00L13.04 1.00L13.04 1.00Q14.60-0.49 16.26-5.49L16.26-5.49L16.26-5.49Q17.92-10.50 17.92-22.36L17.92-22.36L18.12-29.69L18.12-44.53L18.07-45.75L18.07-45.75Q18.02-46.97 18.02-48.19Z" fill="url(#editing-glowing-gradient)"></path></g></g><style>text {
  font-size: 64px;
  font-family: Arial Black;
  dominant-baseline: central;
  text-anchor: middle;
}</style></svg>